<?xml version="1.0" encoding="UTF-8"?>
<svg xmlns="http://www.w3.org/2000/svg" xmlns:xlink="http://www.w3.org/1999/xlink" width="32pt" height="32pt" viewBox="0 0 32 32" version="1.1">
<g id="surface1">
<path style=" stroke:none;fill-rule:nonzero;fill:rgb(0%,0%,0%);fill-opacity:1;" d="M 13.066406 0.363281 C 13.0625 0.367188 12.769531 0.378906 12.417969 0.390625 C 11.746094 0.40625 11.464844 0.421875 11.300781 0.441406 C 11.25 0.445312 11.179688 0.453125 11.152344 0.453125 C 11.035156 0.460938 10.835938 0.726562 10.816406 0.914062 C 10.789062 1.132812 11.027344 1.304688 11.488281 1.40625 C 11.625 1.4375 12.078125 1.453125 12.703125 1.453125 C 13.351562 1.453125 13.421875 1.460938 13.425781 1.5 C 13.425781 1.523438 13.429688 2.738281 13.429688 4.195312 C 13.4375 6.535156 13.429688 6.855469 13.394531 6.871094 C 13.34375 6.894531 13.042969 6.886719 13 6.863281 C 12.984375 6.851562 12.964844 6.851562 12.964844 6.863281 C 12.964844 6.875 12.878906 6.882812 12.773438 6.878906 C 12.539062 6.871094 12.5625 6.871094 12.375 6.878906 C 12.296875 6.882812 12.210938 6.878906 12.195312 6.863281 C 12.175781 6.851562 12.160156 6.847656 12.160156 6.863281 C 12.160156 6.890625 11.753906 6.890625 11.710938 6.863281 C 11.691406 6.851562 11.679688 6.851562 11.679688 6.863281 C 11.679688 6.875 11.589844 6.882812 11.484375 6.878906 C 11.25 6.871094 11.273438 6.871094 11.085938 6.878906 C 11.007812 6.882812 10.921875 6.878906 10.90625 6.863281 C 10.886719 6.851562 10.871094 6.847656 10.871094 6.863281 C 10.871094 6.890625 10.46875 6.890625 10.421875 6.863281 C 10.402344 6.851562 10.390625 6.851562 10.390625 6.863281 C 10.390625 6.875 10.269531 6.886719 10.121094 6.886719 C 9.972656 6.886719 9.851562 6.875 9.851562 6.863281 C 9.851562 6.851562 9.839844 6.851562 9.820312 6.863281 C 9.804688 6.871094 9.570312 6.882812 9.304688 6.886719 C 8.570312 6.898438 8.003906 6.929688 7.6875 6.984375 C 7.582031 7 7.46875 7.015625 7.429688 7.023438 C 7.386719 7.027344 7.328125 7.042969 7.300781 7.058594 C 7.273438 7.078125 7.25 7.082031 7.25 7.074219 C 7.25 7.066406 7.183594 7.09375 7.109375 7.128906 C 6.886719 7.242188 6.683594 7.488281 6.683594 7.652344 C 6.683594 7.765625 6.90625 7.886719 7.195312 7.933594 C 7.246094 7.941406 7.308594 7.953125 7.328125 7.960938 C 7.351562 7.964844 7.460938 7.980469 7.570312 7.988281 C 7.679688 7.996094 7.800781 8.007812 7.839844 8.011719 C 7.875 8.019531 8.050781 8.03125 8.226562 8.039062 C 8.40625 8.050781 8.628906 8.0625 8.726562 8.066406 C 8.820312 8.074219 9.0625 8.082031 9.261719 8.089844 C 9.460938 8.101562 9.734375 8.117188 9.867188 8.121094 C 10 8.128906 10.238281 8.140625 10.398438 8.148438 C 10.5625 8.152344 10.699219 8.167969 10.707031 8.175781 C 10.714844 8.183594 10.726562 8.433594 10.726562 8.730469 C 10.734375 9.03125 10.742188 9.582031 10.75 9.960938 C 10.757812 10.335938 10.769531 10.988281 10.777344 11.410156 C 10.785156 11.832031 10.796875 12.476562 10.804688 12.84375 C 10.8125 13.214844 10.824219 13.878906 10.832031 14.320312 C 10.839844 14.765625 10.851562 15.367188 10.859375 15.664062 C 10.863281 15.960938 10.878906 16.492188 10.886719 16.84375 C 10.914062 18.085938 10.941406 19.222656 10.964844 19.804688 C 10.972656 20.011719 10.984375 20.332031 10.992188 20.515625 C 11.003906 20.820312 11.015625 21.039062 11.046875 21.625 C 11.074219 22.082031 11.085938 22.246094 11.101562 22.390625 C 11.109375 22.46875 11.121094 22.605469 11.128906 22.683594 C 11.1875 23.300781 11.265625 23.695312 11.359375 23.90625 C 11.445312 24.09375 11.777344 24.640625 11.898438 24.792969 C 11.910156 24.804688 11.945312 24.847656 11.976562 24.886719 C 12.007812 24.921875 12.0625 24.996094 12.105469 25.046875 C 12.246094 25.230469 12.601562 25.566406 12.863281 25.761719 C 13.175781 25.988281 13.558594 26.183594 13.945312 26.3125 C 14.09375 26.359375 14.226562 26.40625 14.242188 26.417969 C 14.257812 26.425781 14.300781 26.441406 14.339844 26.453125 C 14.382812 26.460938 14.449219 26.484375 14.488281 26.503906 C 14.527344 26.519531 14.578125 26.535156 14.597656 26.539062 C 14.613281 26.542969 14.683594 26.566406 14.742188 26.589844 L 14.859375 26.632812 L 14.863281 28.410156 C 14.863281 30.472656 14.878906 30.921875 14.96875 31.328125 C 15.035156 31.625 15.15625 31.746094 15.347656 31.703125 C 15.570312 31.65625 15.652344 31.359375 15.695312 30.441406 C 15.703125 30.257812 15.710938 29.339844 15.710938 28.398438 L 15.714844 26.691406 L 15.894531 26.609375 C 15.988281 26.5625 16.175781 26.480469 16.308594 26.421875 C 16.992188 26.121094 17.128906 26.050781 17.414062 25.859375 C 17.765625 25.632812 18.140625 25.296875 18.453125 24.9375 C 18.597656 24.769531 18.84375 24.4375 18.84375 24.40625 C 18.84375 24.390625 18.855469 24.375 18.867188 24.371094 C 18.878906 24.363281 18.949219 24.269531 19.019531 24.160156 C 19.09375 24.050781 19.160156 23.953125 19.167969 23.945312 C 19.175781 23.9375 19.242188 23.839844 19.3125 23.730469 C 19.386719 23.621094 19.453125 23.523438 19.46875 23.523438 C 19.480469 23.515625 19.488281 23.496094 19.488281 23.480469 C 19.488281 23.464844 19.507812 23.433594 19.53125 23.410156 C 19.5625 23.371094 19.574219 23.246094 19.582031 22.71875 C 19.585938 22.363281 19.601562 22.058594 19.609375 22.046875 C 19.617188 22.03125 19.613281 22.011719 19.597656 22 C 19.582031 21.988281 19.574219 21.96875 19.582031 21.957031 C 19.601562 21.9375 19.625 20.625 19.636719 19.578125 C 19.636719 19.324219 19.648438 19.113281 19.660156 19.113281 C 19.667969 19.113281 19.667969 19.09375 19.652344 19.0625 C 19.636719 19.035156 19.632812 19.007812 19.640625 19 C 19.648438 18.992188 19.660156 18.664062 19.667969 18.277344 C 19.671875 17.890625 19.683594 17.265625 19.691406 16.898438 C 19.699219 16.527344 19.710938 15.847656 19.71875 15.382812 C 19.746094 13.933594 19.753906 13.273438 19.757812 13.273438 C 19.761719 13.273438 19.765625 12.992188 19.773438 12.644531 C 19.78125 12.039062 19.789062 11.476562 19.828125 9.664062 C 19.835938 9.214844 19.84375 8.691406 19.847656 8.503906 L 19.851562 8.160156 L 19.917969 8.160156 C 19.957031 8.160156 20.078125 8.152344 20.1875 8.148438 C 20.390625 8.140625 20.882812 8.117188 21.488281 8.09375 C 22.28125 8.0625 22.730469 8.035156 22.871094 8.011719 C 22.921875 8.003906 23.007812 7.992188 23.058594 7.988281 C 23.351562 7.953125 23.550781 7.871094 23.625 7.753906 C 23.667969 7.679688 23.671875 7.625 23.644531 7.464844 C 23.625 7.378906 23.53125 7.269531 23.433594 7.21875 C 23.328125 7.164062 23.035156 7.085938 22.871094 7.070312 C 22.820312 7.066406 22.71875 7.054688 22.644531 7.046875 C 22.167969 6.996094 21.410156 6.964844 19.515625 6.914062 C 18.613281 6.886719 18.351562 6.878906 18.335938 6.871094 C 18.328125 6.871094 18.3125 6.871094 18.296875 6.871094 C 18.28125 6.878906 18.175781 6.878906 18.066406 6.875 C 17.957031 6.871094 17.710938 6.867188 17.515625 6.863281 C 17.234375 6.859375 17.164062 6.851562 17.152344 6.820312 C 17.144531 6.796875 17.136719 5.582031 17.140625 4.121094 L 17.144531 1.464844 L 17.902344 1.457031 C 18.605469 1.453125 19.136719 1.4375 19.300781 1.414062 C 19.339844 1.410156 19.425781 1.378906 19.492188 1.351562 C 19.59375 1.308594 19.625 1.273438 19.644531 1.207031 C 19.710938 0.984375 19.628906 0.757812 19.449219 0.671875 C 19.335938 0.613281 19.308594 0.609375 19.085938 0.5625 C 18.796875 0.496094 18.035156 0.441406 17.140625 0.417969 C 16.980469 0.414062 16.554688 0.398438 16.203125 0.390625 C 15.679688 0.375 13.082031 0.355469 13.066406 0.363281 Z M 15.710938 1.503906 C 15.859375 1.574219 15.933594 1.773438 15.96875 2.199219 C 15.992188 2.503906 15.992188 5.796875 15.96875 6.105469 C 15.941406 6.425781 15.925781 6.511719 15.867188 6.648438 C 15.789062 6.828125 15.695312 6.867188 15.320312 6.878906 C 15.234375 6.886719 15.160156 6.882812 15.15625 6.878906 C 15.148438 6.871094 15.085938 6.863281 15.011719 6.863281 C 14.722656 6.84375 14.625 6.625 14.589844 5.90625 C 14.578125 5.648438 14.578125 2.617188 14.589844 2.429688 C 14.617188 2.011719 14.632812 1.882812 14.671875 1.757812 C 14.757812 1.507812 14.878906 1.449219 15.328125 1.460938 C 15.515625 1.464844 15.667969 1.480469 15.710938 1.503906 Z M 18.527344 8.023438 C 18.566406 8.027344 18.570312 8.476562 18.5625 13.550781 C 18.554688 16.589844 18.546875 19.238281 18.539062 19.4375 C 18.515625 20.246094 18.480469 21.003906 18.460938 21.289062 C 18.449219 21.398438 18.4375 21.566406 18.429688 21.664062 C 18.421875 21.761719 18.410156 21.882812 18.402344 21.933594 C 18.398438 21.984375 18.386719 22.082031 18.378906 22.148438 C 18.367188 22.214844 18.355469 22.292969 18.351562 22.320312 C 18.347656 22.351562 18.332031 22.441406 18.320312 22.523438 C 18.308594 22.605469 18.296875 22.675781 18.296875 22.683594 C 18.277344 22.734375 18.246094 22.941406 18.25 22.957031 C 18.253906 22.972656 18.246094 22.980469 18.234375 22.980469 C 18.222656 22.980469 18.210938 23.003906 18.210938 23.03125 C 18.207031 23.058594 18.183594 23.136719 18.164062 23.207031 C 18.140625 23.273438 18.121094 23.34375 18.121094 23.355469 C 18.121094 23.371094 18.089844 23.445312 18.054688 23.523438 C 18.015625 23.597656 17.988281 23.679688 17.988281 23.695312 C 17.988281 23.714844 17.976562 23.730469 17.960938 23.730469 C 17.945312 23.730469 17.933594 23.746094 17.933594 23.765625 C 17.933594 23.886719 17.40625 24.492188 17.113281 24.710938 C 17.054688 24.757812 16.992188 24.808594 16.96875 24.828125 C 16.890625 24.898438 16.566406 25.097656 16.375 25.1875 C 16.148438 25.292969 15.859375 25.390625 15.679688 25.417969 C 15.34375 25.46875 14.636719 25.417969 14.53125 25.335938 C 14.511719 25.320312 14.496094 25.316406 14.496094 25.324219 C 14.496094 25.355469 13.925781 25.105469 13.910156 25.070312 C 13.90625 25.058594 13.890625 25.046875 13.875 25.046875 C 13.816406 25.046875 13.351562 24.679688 13.167969 24.480469 C 12.921875 24.21875 12.535156 23.679688 12.535156 23.601562 C 12.535156 23.585938 12.527344 23.570312 12.519531 23.566406 C 12.484375 23.550781 12.28125 23.121094 12.191406 22.871094 C 12.105469 22.640625 12.019531 22.265625 11.988281 22.03125 C 11.980469 21.960938 11.96875 21.855469 11.960938 21.789062 C 11.9375 21.617188 11.917969 21.335938 11.90625 20.980469 C 11.894531 20.648438 11.859375 17.421875 11.863281 17.328125 C 11.867188 17.308594 11.882812 17.296875 11.902344 17.296875 C 11.917969 17.296875 12 17.289062 12.082031 17.277344 C 12.160156 17.269531 12.296875 17.257812 12.375 17.25 C 12.820312 17.210938 12.886719 17.207031 12.945312 17.195312 C 13.136719 17.15625 13.175781 17.148438 13.25 17.121094 C 13.441406 17.050781 13.550781 16.992188 13.617188 16.921875 C 13.910156 16.613281 13.460938 16.289062 12.652344 16.226562 C 12.539062 16.21875 12.4375 16.207031 12.425781 16.203125 C 12.417969 16.195312 12.375 16.183594 12.324219 16.175781 C 12.054688 16.125 11.898438 15.953125 11.875 15.664062 C 11.832031 15.171875 11.898438 14.914062 12.101562 14.792969 C 12.183594 14.742188 12.398438 14.679688 12.519531 14.667969 C 13.128906 14.621094 13.421875 14.53125 13.601562 14.339844 C 13.707031 14.226562 13.734375 14.125 13.691406 14 C 13.660156 13.90625 13.46875 13.71875 13.402344 13.71875 C 13.386719 13.71875 13.367188 13.707031 13.367188 13.695312 C 13.367188 13.679688 13.214844 13.609375 13.164062 13.605469 C 13.148438 13.605469 13.113281 13.59375 13.074219 13.578125 C 13.035156 13.5625 12.984375 13.550781 12.953125 13.542969 C 12.921875 13.539062 12.851562 13.53125 12.792969 13.519531 C 12.734375 13.511719 12.632812 13.496094 12.5625 13.492188 C 12.265625 13.464844 12.0625 13.414062 11.9375 13.34375 C 11.851562 13.296875 11.707031 13.070312 11.757812 13.050781 C 11.773438 13.046875 11.773438 13.027344 11.757812 12.996094 C 11.746094 12.96875 11.738281 12.941406 11.746094 12.9375 C 11.75 12.929688 11.765625 12.863281 11.773438 12.792969 C 11.796875 12.621094 11.859375 12.460938 11.945312 12.359375 C 12.054688 12.230469 12.320312 12.121094 12.589844 12.097656 C 12.675781 12.085938 12.988281 12.046875 13.019531 12.039062 C 13.496094 11.9375 13.757812 11.707031 13.6875 11.453125 C 13.617188 11.199219 13.1875 10.980469 12.671875 10.9375 C 12.605469 10.929688 12.515625 10.921875 12.46875 10.914062 C 12.425781 10.90625 12.332031 10.894531 12.253906 10.882812 C 12.183594 10.875 12.0625 10.835938 11.996094 10.800781 C 11.847656 10.726562 11.777344 10.605469 11.742188 10.363281 C 11.707031 10.09375 11.722656 9.050781 11.769531 8.75 C 11.808594 8.503906 11.816406 8.460938 11.839844 8.367188 C 11.894531 8.179688 12.003906 8.148438 12.75 8.09375 C 13.164062 8.066406 13.421875 8.054688 14.203125 8.039062 C 14.605469 8.03125 14.941406 8.019531 14.945312 8.019531 C 14.949219 8.011719 18.449219 8.019531 18.527344 8.023438 Z M 18.527344 8.023438 "/>
</g>
</svg>
