<?xml version="1.0" standalone="no"?>
<!DOCTYPE svg PUBLIC "-//W3C//DTD SVG 20010904//EN"
 "http://www.w3.org/TR/2001/REC-SVG-20010904/DTD/svg10.dtd">
<svg version="1.0" xmlns="http://www.w3.org/2000/svg"
 width="1192.000000pt" height="1192.000000pt" viewBox="0 0 1192.000000 1192.000000"
 preserveAspectRatio="xMidYMid meet">
<metadata>
Created by potrace 1.11, written by Peter Selinger 2001-2013
</metadata>
<g transform="translate(0.000000,1192.000000) scale(0.100000,-0.100000)"
fill="#000000" stroke="none">
<path d="M4867 11784 c-1 -1 -110 -5 -242 -9 -249 -7 -355 -12 -415 -19 -19
-2 -45 -5 -56 -5 -44 -2 -117 -102 -125 -171 -10 -82 78 -146 251 -184 51 -12
219 -18 452 -18 241 0 268 -2 269 -17 0 -9 1 -461 2 -1004 2 -871 0 -990 -13
-996 -20 -9 -132 -7 -147 2 -7 5 -13 5 -13 0 0 -4 -33 -7 -72 -6 -87 4 -79 4
-148 0 -30 -1 -61 1 -67 6 -7 5 -13 6 -13 1 0 -11 -151 -11 -168 0 -7 4 -12 4
-12 -1 0 -4 -33 -7 -72 -6 -87 4 -79 4 -148 0 -30 -1 -61 1 -67 6 -7 5 -13 6
-13 1 0 -11 -151 -11 -168 0 -7 4 -12 4 -12 -1 0 -4 -45 -8 -100 -8 -55 0
-100 4 -100 8 0 5 -5 5 -12 1 -6 -4 -93 -8 -192 -10 -274 -3 -485 -15 -603
-35 -38 -6 -81 -13 -96 -15 -15 -2 -37 -8 -47 -14 -11 -6 -20 -8 -20 -5 0 3
-24 -7 -52 -21 -82 -41 -158 -134 -158 -194 0 -42 83 -88 190 -105 19 -3 42
-8 50 -10 8 -2 49 -7 90 -10 41 -4 86 -8 100 -10 14 -3 79 -7 145 -10 66 -4
149 -8 185 -10 36 -2 126 -6 200 -9 74 -4 176 -9 225 -11 50 -3 139 -7 199
-10 60 -2 111 -7 114 -10 3 -3 7 -96 8 -207 2 -112 6 -318 8 -458 3 -140 8
-383 11 -540 3 -157 7 -397 10 -535 3 -137 7 -385 10 -550 3 -165 7 -390 10
-500 2 -110 7 -308 10 -440 10 -462 21 -886 30 -1102 2 -78 7 -197 9 -265 5
-113 9 -195 21 -413 10 -171 15 -232 20 -285 3 -30 8 -80 11 -110 22 -230 50
-377 85 -455 32 -70 156 -273 201 -330 5 -5 18 -21 29 -35 12 -14 33 -41 48
-60 52 -69 185 -193 283 -266 116 -85 259 -158 403 -205 55 -18 105 -35 110
-39 6 -4 22 -10 37 -14 15 -3 40 -11 55 -18 15 -6 34 -12 40 -14 7 -1 32 -10
55 -18 l43 -17 1 -662 c0 -768 7 -936 40 -1087 25 -110 70 -155 141 -140 83
18 114 129 129 470 4 69 7 411 7 761 l1 636 66 31 c36 17 106 48 155 70 254
112 305 138 412 209 130 85 270 210 387 344 54 62 146 186 146 198 0 5 3 11 8
13 4 2 30 37 57 78 28 41 52 77 55 80 3 3 27 39 54 80 27 41 53 77 58 78 4 2
8 9 8 15 0 6 7 18 15 27 12 14 16 61 19 257 2 133 7 246 10 251 3 6 2 13 -4
17 -6 4 -8 11 -5 16 6 8 16 496 19 886 0 95 5 173 9 173 4 0 3 8 -2 19 -6 10
-8 21 -5 24 3 3 7 124 10 269 2 144 6 376 9 513 3 138 8 392 10 565 10 540 14
785 15 785 1 0 3 106 5 235 3 225 7 435 21 1110 3 168 6 362 7 433 l2 127 25
1 c14 0 59 2 100 4 75 3 259 11 485 20 295 12 462 22 515 31 19 3 51 7 70 9
109 13 183 43 210 87 17 28 18 48 7 108 -6 31 -41 72 -78 91 -40 20 -149 49
-209 55 -19 2 -57 6 -85 9 -178 19 -460 31 -1165 50 -336 9 -434 12 -440 15
-3 1 -9 1 -15 0 -5 -2 -44 -2 -85 -1 -41 2 -133 3 -205 4 -105 2 -131 5 -136
17 -3 8 -5 461 -4 1005 l1 990 283 2 c261 1 460 8 521 16 14 2 46 13 71 24 37
16 49 28 57 54 25 82 -6 167 -73 199 -43 21 -52 23 -135 41 -108 24 -392 44
-725 54 -60 1 -218 6 -350 10 -194 6 -1162 13 -1168 9z m986 -424 c55 -26 82
-100 95 -259 9 -113 9 -1340 0 -1456 -10 -118 -16 -151 -38 -202 -29 -66 -64
-81 -203 -86 -32 -2 -60 -1 -62 1 -2 2 -26 5 -53 6 -108 6 -144 88 -157 356
-5 96 -5 1225 0 1295 10 155 16 204 31 250 31 94 76 115 244 111 69 -2 126 -8
143 -16z m1048 -2429 c15 -1 16 -169 13 -2058 -2 -1132 -5 -2119 -8 -2193 -9
-302 -22 -584 -30 -690 -3 -41 -8 -104 -11 -140 -3 -36 -7 -81 -10 -100 -2
-19 -6 -55 -9 -80 -4 -25 -8 -54 -10 -65 -2 -11 -7 -45 -12 -75 -4 -30 -9 -57
-9 -60 -6 -18 -19 -96 -17 -102 1 -5 -2 -8 -6 -8 -4 0 -8 -9 -9 -19 -1 -11 -9
-40 -17 -65 -9 -26 -16 -51 -16 -56 0 -6 -11 -33 -25 -62 -14 -28 -25 -58 -25
-65 0 -7 -4 -13 -10 -13 -5 0 -10 -6 -10 -13 0 -45 -196 -271 -305 -352 -22
-17 -46 -36 -54 -43 -29 -27 -150 -101 -221 -135 -84 -39 -192 -75 -260 -85
-125 -19 -388 0 -427 31 -7 5 -13 7 -13 4 0 -12 -212 81 -218 95 -2 4 -8 8
-13 8 -23 0 -195 137 -264 211 -91 98 -235 298 -235 328 0 5 -3 11 -7 13 -13
5 -88 166 -121 258 -32 86 -65 226 -76 313 -3 26 -8 66 -11 90 -8 64 -15 169
-20 302 -4 124 -18 1326 -16 1361 1 6 7 11 14 11 6 0 37 3 67 7 30 3 80 8 110
11 165 14 191 16 212 20 71 14 86 17 113 27 72 26 112 48 137 75 109 115 -58
235 -359 259 -42 3 -80 7 -84 9 -3 2 -20 7 -38 10 -101 18 -159 83 -168 190
-16 184 9 279 85 325 31 19 110 42 155 46 227 18 336 51 404 123 39 41 49 79
33 126 -12 35 -83 105 -107 105 -7 0 -13 4 -13 8 0 7 -57 32 -77 34 -5 0 -19
5 -33 10 -14 6 -34 11 -45 13 -11 1 -38 5 -60 9 -22 3 -60 8 -85 10 -111 11
-186 29 -233 55 -33 18 -86 103 -67 109 6 2 6 10 0 21 -5 10 -7 20 -5 22 2 3
7 27 11 54 8 64 32 124 64 161 41 48 140 89 240 98 32 4 148 19 160 21 177 38
275 124 249 218 -26 95 -187 177 -379 193 -25 2 -58 6 -75 8 -16 3 -52 8 -80
12 -27 3 -71 17 -97 30 -55 28 -81 74 -94 164 -13 100 -7 489 10 600 14 92 17
108 27 143 19 70 60 82 339 102 153 10 249 14 540 21 151 3 276 7 277 7 1 2
1305 0 1334 -2z"/>
</g>
</svg>
